# xmcd CD database file
#
# Track frame offsets:
#	150
#	9369
#	20186
#	50848
#	96045
#	133129
#	165206
#	190521
#	222962
#	256502
#
# Disc length: 3689 seconds
#
# Revision: 1
# Processed by: cddbd v1.5.2PL0 Copyright (c) Steve Scherf et al.
# Submitted via: CDex 1.70beta2
#
DISCID=7b0e670a
DTITLE=Montreal Jubilation Gospel Choir - Goin' Up Yonder (Jubilation IX)
DYEAR=2002
DGENRE=Gospel
TTITLE0=Highway to Heaven
TTITLE1=I Wanna be Ready
TTITLE2=He Brought Us
TTITLE3=Goin' up Yonder
TTITLE4=Over my Head
TTITLE5=No Ways Tierd
TTITLE6=O Happy Day
TTITLE7=Glory Train
TTITLE8=Changed
TTITLE9=Babethandaza
EXTD=YEAR: 2002
EXTT0=
EXTT1=
EXTT2=
EXTT3=
EXTT4=
EXTT5=
EXTT6=
EXTT7=
EXTT8=
EXTT9=
PLAYORDER=
